<?xml version="1.0" standalone="no"?>
<!DOCTYPE svg PUBLIC "-//W3C//DTD SVG 20010904//EN"
 "http://www.w3.org/TR/2001/REC-SVG-20010904/DTD/svg10.dtd">
<svg version="1.0" xmlns="http://www.w3.org/2000/svg"
 width="1616.000000pt" height="1249.000000pt" viewBox="0 0 1616.000000 1249.000000"
 preserveAspectRatio="xMidYMid meet">

<g transform="translate(0.000000,1249.000000) scale(0.100000,-0.100000)"
fill="#000000" stroke="none">
<path d="M7825 11789 c-166 -22 -368 -106 -555 -231 l-45 -31 -141 23 c-117
18 -167 21 -300 17 -105 -3 -181 -10 -224 -22 -98 -25 -254 -105 -350 -178
-101 -76 -302 -281 -419 -429 l-85 -105 -221 -31 c-340 -48 -534 -104 -690
-201 -194 -120 -322 -286 -445 -576 l-42 -100 -96 -45 c-218 -102 -410 -259
-505 -411 -117 -189 -167 -397 -198 -829 l-12 -165 -129 -120 c-361 -338 -507
-572 -539 -866 -10 -98 -10 -132 5 -239 9 -69 27 -168 40 -220 l23 -95 -62
-120 c-109 -208 -155 -374 -155 -558 1 -264 77 -455 367 -917 l41 -65 -14 -65
c-52 -243 -67 -374 -68 -580 0 -179 2 -215 21 -287 31 -116 75 -217 135 -309
50 -75 238 -275 322 -342 39 -30 39 -31 57 -154 82 -540 305 -779 970 -1038
l136 -53 97 -196 c228 -463 389 -645 675 -761 108 -44 347 -90 470 -90 45 0
48 -2 146 -101 261 -263 471 -359 785 -359 152 0 288 21 546 85 100 25 187 45
194 45 7 0 85 -40 174 -90 345 -191 554 -260 789 -260 211 0 361 51 619 207
59 36 111 62 116 59 30 -18 260 -46 380 -46 382 0 620 144 1005 607 103 124
112 133 151 138 446 57 621 98 791 182 229 115 392 309 520 620 l38 92 119 61
c227 114 374 234 472 385 132 202 191 438 212 860 l7 140 182 180 c245 241
334 354 411 520 65 140 79 211 78 395 0 143 -4 182 -28 290 -16 69 -30 136
-33 150 -3 17 9 49 35 96 139 254 200 497 174 706 -27 216 -117 424 -322 744
l-81 126 35 197 c63 347 69 512 27 716 -40 196 -139 365 -316 540 -61 61 -128
121 -148 135 -31 21 -37 32 -42 70 -45 353 -126 551 -299 728 -132 136 -313
242 -645 376 -96 39 -178 78 -183 86 -4 8 -42 85 -83 170 -143 298 -241 446
-383 581 -177 168 -399 254 -717 276 l-90 6 -117 113 c-192 185 -370 290 -559
329 -43 9 -125 15 -212 15 -167 0 -297 -20 -566 -85 l-184 -45 -136 74 c-273
150 -487 238 -641 265 -82 14 -220 19 -285 10z m284 -54 c102 -20 208 -55 336
-112 107 -48 378 -193 372 -199 -6 -6 -258 -61 -347 -75 -134 -22 -400 -17
-545 10 -138 25 -616 141 -629 152 -10 9 48 47 179 115 108 57 222 99 307 113
86 14 240 12 327 -4z m-1080 -221 c58 -9 112 -17 119 -17 7 0 11 -4 10 -8 -8
-21 -442 -327 -585 -413 -137 -82 -311 -148 -490 -185 -101 -22 -305 -52 -310
-47 -6 6 183 226 275 319 212 215 390 322 596 356 86 14 273 12 385 -5z m2780
6 c126 -21 262 -80 388 -169 72 -51 257 -220 249 -228 -10 -10 -424 -13 -591
-3 -312 17 -444 53 -729 193 -143 71 -176 91 -163 99 24 13 335 84 427 97 41
6 86 13 100 15 56 8 259 5 319 -4z m-2321 -104 c454 -114 568 -131 794 -123
165 5 258 19 465 68 l133 32 67 -37 c252 -138 462 -221 631 -252 127 -22 341
-33 649 -34 l272 0 138 -167 c403 -488 506 -581 801 -727 70 -35 174 -82 232
-105 l105 -41 57 -118 c184 -382 330 -555 693 -817 301 -217 365 -267 365
-286 0 -10 4 -74 10 -141 5 -68 14 -197 20 -288 31 -478 97 -684 337 -1054
l65 -100 -26 -146 c-61 -342 -61 -517 -1 -780 27 -119 39 -158 135 -460 38
-118 71 -224 74 -236 5 -16 -34 -84 -153 -271 -339 -531 -385 -652 -426 -1124
l-14 -156 -144 -144 c-310 -311 -375 -427 -566 -1015 l-91 -281 -297 -118
c-320 -127 -479 -203 -599 -287 -94 -64 -242 -204 -349 -328 -151 -176 -121
-157 -280 -181 -471 -69 -632 -142 -1142 -512 -114 -83 -212 -147 -224 -147
-12 0 -119 25 -238 56 -380 97 -497 120 -681 130 -171 10 -418 -23 -657 -87
l-73 -19 -107 58 c-238 127 -425 200 -583 228 -131 23 -338 34 -640 34 -151 0
-280 4 -285 8 -11 7 -76 84 -281 333 -292 353 -444 470 -813 625 -58 25 -124
52 -145 62 -35 14 -44 27 -77 98 -102 221 -231 423 -353 551 -97 103 -205 190
-467 378 -112 80 -216 159 -230 175 -25 26 -27 37 -34 146 -16 286 -35 518
-50 619 -41 276 -116 453 -342 807 -28 44 -30 52 -21 95 44 225 59 356 59 508
1 231 -26 355 -166 793 -47 145 -85 273 -85 284 0 11 41 83 92 161 262 406
336 538 393 697 47 131 85 350 100 581 l7 96 130 129 c326 323 395 448 589
1053 43 134 84 250 91 256 7 7 130 58 273 114 571 225 719 324 1019 685 81 99
80 98 118 102 187 21 433 72 557 116 208 73 375 176 831 512 41 30 76 55 78
56 1 0 118 -29 260 -64z m3267 -367 c127 -19 229 -50 344 -107 104 -50 124
-65 216 -156 128 -127 214 -255 336 -501 51 -102 90 -187 88 -189 -6 -6 -140
49 -268 110 -182 86 -298 169 -446 318 -103 103 -378 424 -453 528 -12 17 -9
17 50 12 35 -3 95 -10 133 -15z m-5157 -346 c-107 -130 -278 -295 -374 -360
-108 -73 -283 -162 -454 -231 -212 -85 -386 -152 -393 -152 -11 0 30 96 90
212 152 294 361 450 710 533 110 26 391 72 451 74 l33 1 -63 -77z m6422 -770
c144 -58 326 -150 416 -209 78 -52 198 -167 248 -238 88 -124 143 -266 177
-460 10 -59 19 -114 19 -122 0 -16 -419 286 -550 397 -176 149 -285 291 -416
543 -41 78 -74 146 -74 150 0 10 22 2 180 -61z m-7824 -354 c-174 -533 -243
-654 -535 -944 l-111 -110 0 66 c0 88 26 348 46 449 62 327 183 519 434 690
58 40 251 142 257 136 1 -1 -39 -130 -91 -287z m8848 -882 c150 -137 269 -309
320 -461 65 -192 63 -459 -6 -829 -17 -94 -24 -115 -34 -105 -21 22 -144 228
-188 318 -118 235 -150 387 -181 860 -18 266 -18 303 -5 298 5 -1 47 -38 94
-81z m-9555 -384 c-40 -456 -98 -616 -394 -1068 -43 -66 -98 -151 -122 -189
-25 -42 -44 -64 -47 -55 -56 161 -72 476 -32 624 25 92 118 270 192 368 66 87
392 420 404 412 3 -2 3 -43 -1 -92z m9900 -1191 c271 -413 370 -689 341 -951
-6 -58 -25 -148 -42 -200 -33 -106 -137 -333 -148 -326 -4 3 -11 17 -15 32 -3
16 -38 125 -76 244 -170 526 -190 718 -119 1114 6 33 14 75 17 93 3 17 8 32
12 32 3 0 17 -17 30 -38z m-10314 -755 c69 -234 79 -301 80 -522 0 -119 -5
-227 -12 -267 -7 -38 -18 -98 -24 -135 -7 -38 -15 -74 -19 -82 -10 -18 -146
197 -230 364 -113 225 -145 344 -144 540 0 115 4 155 24 225 26 93 77 219 129
320 l34 65 64 -195 c35 -107 79 -248 98 -313z m10480 -961 c56 -276 42 -464
-47 -656 -52 -112 -86 -165 -184 -285 -81 -100 -352 -370 -362 -361 -8 8 17
251 39 376 45 258 128 435 401 855 46 72 92 143 103 159 l18 30 9 -23 c5 -13
15 -56 23 -95z m-10407 -218 c10 -18 43 -71 72 -118 202 -327 254 -533 285
-1135 3 -60 8 -131 12 -157 3 -30 2 -48 -5 -48 -16 0 -207 185 -260 253 -182
231 -240 481 -197 848 19 158 60 389 70 389 2 0 12 -15 23 -32z m9762 -1230
c-1 -36 -28 -348 -35 -398 -65 -447 -234 -683 -633 -884 -40 -20 -72 -32 -72
-26 0 5 25 87 56 182 162 507 228 653 377 837 71 88 286 311 299 311 5 0 8
-10 8 -22z m-9113 -499 c412 -299 523 -407 664 -647 73 -124 161 -302 149
-302 -21 0 -266 103 -385 162 -396 196 -567 419 -635 828 -6 36 -13 75 -15 88
-3 12 -1 22 4 22 6 0 104 -68 218 -151z m8278 -931 c-4 -13 -29 -70 -56 -127
-156 -329 -360 -499 -709 -588 -146 -37 -510 -93 -510 -78 0 11 104 130 199
228 146 151 257 233 433 324 77 39 614 261 636 262 9 1 11 -6 7 -21z m-7269
-144 c122 -49 314 -146 393 -199 96 -63 205 -160 296 -261 87 -97 388 -460
393 -473 4 -13 -119 -2 -243 21 -363 68 -570 238 -788 648 -55 102 -149 300
-144 300 2 0 43 -16 93 -36z m5874 -720 c0 -15 -202 -247 -294 -339 -130 -129
-217 -194 -341 -255 -145 -70 -209 -84 -395 -85 -144 0 -324 18 -343 35 -7 6
73 69 323 251 142 103 377 237 485 277 150 55 565 140 565 116z m-4063 -274
c273 -17 427 -55 652 -161 122 -58 234 -119 228 -125 -7 -7 -317 -82 -417
-100 -133 -25 -411 -25 -496 -1 -176 49 -319 135 -475 285 -55 52 -99 97 -99
101 0 11 435 12 607 1z m1783 -214 c63 -8 140 -20 170 -25 103 -20 600 -146
600 -153 0 -10 -178 -113 -253 -147 -37 -17 -104 -42 -149 -57 -76 -25 -96
-28 -243 -28 -136 0 -173 3 -245 22 -153 42 -340 125 -564 250 l-88 50 33 10
c89 28 295 68 409 81 117 13 206 12 330 -3z"/>
<path d="M9248 7181 c-163 -53 -335 -186 -526 -409 -163 -191 -238 -291 -462
-622 -262 -386 -557 -806 -617 -879 -62 -74 -181 -197 -215 -222 -22 -16 -14
1 38 83 192 300 287 571 399 1138 91 460 138 586 263 708 86 83 14 61 -116
-35 -121 -90 -370 -335 -504 -498 -41 -49 -191 -232 -333 -405 -274 -333 -321
-386 -480 -541 -333 -323 -649 -525 -928 -594 -289 -70 -512 -35 -671 106 -82
74 -120 156 -125 272 -2 73 1 102 23 170 43 136 127 254 239 337 50 37 70 60
51 60 -18 0 -101 -69 -158 -132 -74 -81 -147 -216 -167 -309 -18 -86 -8 -203
24 -272 50 -110 172 -212 305 -256 152 -49 391 -33 617 44 169 56 426 209 605
359 230 192 369 344 763 834 256 319 331 406 511 587 116 117 236 229 266 250
l55 38 -63 -72 c-76 -88 -124 -159 -185 -271 -111 -205 -210 -490 -256 -735
-6 -33 -25 -136 -41 -230 -77 -430 -115 -559 -192 -657 -25 -32 -27 -39 -14
-44 33 -13 149 97 315 296 125 149 191 241 534 739 298 433 488 677 681 878
118 123 165 161 269 216 105 56 193 80 248 68 59 -14 68 -13 45 4 -27 21 -127
18 -198 -4z"/>
<path d="M11970 7053 c-250 -88 -451 -192 -675 -348 -240 -168 -379 -286 -807
-682 -171 -158 -354 -327 -407 -375 l-96 -88 -447 0 c-287 0 -449 -4 -453 -10
-4 -7 142 -10 429 -10 500 0 465 10 339 -100 -170 -148 -566 -422 -708 -490
-86 -40 -237 -90 -340 -111 -33 -7 -118 -13 -190 -13 -156 -1 -238 20 -336 87
-124 82 -174 181 -173 337 1 179 82 353 248 529 190 201 549 390 926 487 74
19 136 36 138 38 25 25 -170 -20 -343 -79 -142 -48 -385 -167 -500 -243 -234
-156 -391 -342 -461 -547 -24 -67 -28 -97 -28 -185 -1 -130 22 -194 95 -275
119 -130 293 -185 518 -164 349 32 693 214 1206 638 l110 91 348 0 c191 0 347
-3 347 -8 0 -4 -45 -60 -100 -124 -135 -157 -266 -271 -375 -325 -34 -17 -54
-19 -130 -16 -93 5 -152 -7 -139 -28 5 -8 37 -10 110 -6 57 4 107 8 111 9 4 1
52 -2 105 -6 120 -10 240 5 321 41 31 14 57 30 57 35 0 4 -17 0 -38 -11 -58
-29 -184 -52 -282 -50 -48 1 -93 4 -99 8 -6 4 31 28 82 54 321 162 541 334
662 518 27 41 133 247 235 459 247 510 340 666 471 784 81 74 198 143 273 162
14 3 29 10 32 15 6 10 -12 11 -36 2z m-393 -275 c-192 -191 -241 -255 -458
-603 -89 -143 -214 -340 -278 -437 l-116 -178 -345 0 -345 0 30 29 c615 591
1047 971 1295 1135 76 50 365 216 378 216 2 0 -71 -73 -161 -162z"/>
<path d="M7175 6930 c-280 -25 -554 -101 -804 -221 -341 -163 -553 -384 -593
-616 -22 -131 15 -238 111 -325 129 -116 353 -129 626 -36 104 35 165 64 165
78 0 6 -17 2 -37 -9 -61 -30 -242 -89 -316 -102 -100 -17 -249 -7 -322 21 -76
30 -155 103 -185 173 -31 69 -31 196 -2 279 28 79 108 190 200 280 367 357
1210 563 1757 428 22 -5 47 -9 55 -9 37 0 -21 19 -119 38 -119 24 -390 35
-536 21z"/>
</g>
</svg>
